<svg width="20" height="20" viewBox="0 0 20 20" fill="none" xmlns="http://www.w3.org/2000/svg">
<rect x="2" y="2" width="16" height="16" rx="4" fill="black"/>
<path d="M10.2446 8.00827C10.2365 8.06887 10.2212 8.1285 10.1992 8.18615C9.98119 8.93077 9.74503 9.67538 9.54974 10.42C9.37717 11.0115 9.20459 11.6031 9.03655 12.1946C9.03655 12.2319 9.0093 12.2526 8.96389 12.2526C8.69494 12.2809 8.42413 12.2159 8.20545 12.0705C8.10966 11.9936 8.035 11.8972 7.98746 11.7892C7.91181 11.6117 7.85108 11.4291 7.8058 11.2432C7.63322 10.602 7.4561 9.96081 7.28352 9.31962C7.271 9.25297 7.24645 9.18867 7.21086 9.12933C7.2027 9.1155 7.19058 9.10394 7.17579 9.09588C7.16099 9.08782 7.14408 9.08357 7.12684 9.08357C7.1096 9.08357 7.09269 9.08782 7.07789 9.09588C7.0631 9.10394 7.05098 9.1155 7.04282 9.12933C7.02867 9.14684 7.01792 9.16643 7.01103 9.18724C7.01103 9.22034 6.98832 9.24929 6.97924 9.27825C6.86116 9.69192 6.74762 10.1263 6.63408 10.5482C6.52055 10.9702 6.44334 11.2887 6.32072 11.6527C6.29077 11.7389 6.2512 11.8221 6.20264 11.9009C6.14535 11.9926 6.0655 12.071 5.96937 12.1299C5.87323 12.1887 5.76343 12.2265 5.64857 12.2402C5.52191 12.2546 5.39375 12.2546 5.26709 12.2402C5.23529 12.2402 5.22621 12.2402 5.21713 12.1988L4.94464 11.2639C4.65398 10.2587 4.36332 9.25757 4.06812 8.25234C4.04542 8.17374 4.02725 8.09514 4 8.02068V8H4.22253H4.30882C4.47872 8.01598 4.63886 8.08003 4.76675 8.18317C4.89463 8.2863 4.98384 8.42333 5.02184 8.57501C5.20805 9.23688 5.39425 9.89462 5.58499 10.5565C5.58499 10.6475 5.63495 10.7385 5.6622 10.8378V10.7923C5.82569 10.2132 5.99373 9.63815 6.15722 9.06314C6.20237 8.88014 6.27415 8.70346 6.37068 8.53778C6.42415 8.43635 6.50748 8.35043 6.61138 8.28957C6.73676 8.22458 6.8767 8.18634 7.02066 8.17775C7.16462 8.16915 7.30884 8.19041 7.44248 8.23993C7.57582 8.28139 7.6896 8.36313 7.76492 8.47159C7.86171 8.6186 7.93511 8.77738 7.98292 8.94318C8.16004 9.56369 8.33716 10.1842 8.51882 10.7964C8.51882 10.7964 8.51882 10.8171 8.51882 10.8254L8.59602 10.5565C8.78374 9.89462 8.97146 9.23275 9.15917 8.57087C9.19981 8.44318 9.2787 8.32832 9.387 8.23918C9.49529 8.15003 9.6287 8.09013 9.77228 8.06619C9.84948 8.0455 9.92669 8.03723 10.0039 8.02068L10.2446 8.00827Z" fill="white"/>
<path d="M15.876 8.00827H15.9623C16.0077 8.00827 16.0077 8.00827 15.985 8.04964L15.7443 8.36817L14.8042 9.64642L14.4681 10.0973C14.4595 10.1057 14.4547 10.1168 14.4547 10.1283C14.4547 10.1399 14.4595 10.1509 14.4681 10.1594C14.8633 10.693 15.2584 11.2308 15.658 11.7644L15.9759 12.1988C16.0032 12.2319 15.9986 12.236 15.9759 12.2402C15.7513 12.2651 15.5235 12.2524 15.3038 12.2029C15.1544 12.1629 15.0196 12.0872 14.9132 11.9837C14.723 11.7929 14.5484 11.5897 14.3909 11.3756L13.9867 10.8461C13.9186 10.7551 13.8369 10.7551 13.7687 10.8461L13.4645 11.2597C13.3055 11.4624 13.1602 11.6734 12.9876 11.8678C12.9286 11.9388 12.8633 12.0053 12.7923 12.0664C12.6805 12.1593 12.5418 12.2211 12.3927 12.2443C12.1991 12.2842 11.9997 12.2954 11.8023 12.2774C11.7568 12.2774 11.7523 12.2774 11.8023 12.2319C12.3018 11.5617 12.7969 10.8874 13.2964 10.2132C13.3418 10.1552 13.3373 10.1718 13.2964 10.118L12.0248 8.39712L11.7705 8.06618C11.7705 8.03723 11.7705 8.03309 11.7932 8.02895H11.8795H12.1928L12.3291 8.04964C12.5112 8.07009 12.6797 8.1476 12.8059 8.26888C12.8922 8.35576 12.9785 8.44676 13.0557 8.53777C13.2328 8.75288 13.3963 8.97627 13.5644 9.19551C13.637 9.29066 13.7097 9.38994 13.7869 9.48095C13.796 9.49557 13.8092 9.50773 13.8252 9.51619C13.8411 9.52465 13.8593 9.52911 13.8777 9.52911C13.8962 9.52911 13.9143 9.52465 13.9303 9.51619C13.9462 9.50773 13.9595 9.49557 13.9686 9.48095L14.3773 8.94731C14.5371 8.72449 14.7131 8.51166 14.9041 8.31025C15.0142 8.19806 15.1578 8.11756 15.3174 8.07859C15.3901 8.07859 15.4718 8.05377 15.549 8.04136L15.876 8.00827Z" fill="white"/>
<path d="M11.3845 8.00827C11.3816 8.11926 11.3695 8.2299 11.3482 8.33921C11.3207 8.44618 11.2512 8.54033 11.1529 8.60396C11.0595 8.67062 10.9553 8.72365 10.8441 8.76116C10.7447 8.79457 10.6524 8.84357 10.5716 8.90594C10.5716 8.90594 10.5716 8.90594 10.5443 8.90594C10.5405 8.73315 10.5619 8.56066 10.6079 8.39299C10.635 8.30317 10.6903 8.22249 10.7669 8.16079C10.8435 8.09909 10.9382 8.05903 11.0394 8.0455L11.221 8.01654L11.3845 8.00827Z" fill="#FFAA30"/>
<path d="M11.3845 8.7074V11.4004C11.3869 11.5387 11.3778 11.677 11.3572 11.8141C11.3475 11.9141 11.3024 12.0084 11.2287 12.0831C11.1549 12.1577 11.0566 12.2084 10.9485 12.2278C10.8298 12.2546 10.707 12.263 10.5852 12.2526C10.5488 12.2526 10.5352 12.2526 10.5352 12.2071V9.36927C10.533 9.30569 10.5516 9.24295 10.5889 9.18913C10.6261 9.1353 10.6802 9.09287 10.7441 9.06729L10.9894 8.95974C11.1336 8.90749 11.2615 8.82367 11.3618 8.71567L11.3845 8.7074Z" fill="white"/>
</svg>
